{
	"asset":{
		"generator":"Khronos glTF Blender I/O v3.6.27",
		"version":"2.0"
	},
	"scene":0,
	"scenes":[
		{
			"name":"Scene",
			"nodes":[
				0
			]
		}
	],
	"nodes":[
		{
			"mesh":0,
			"name":"B_Bishop"
		}
	],
	"materials":[
		{
			"doubleSided":true,
			"name":"B_Bishop_Material",
			"pbrMetallicRoughness":{
				"baseColorTexture":{
					"index":0
				},
				"metallicFactor":0.6988120079040527,
				"roughnessFactor":0.3557334542274475
			}
		}
	],
	"meshes":[
		{
			"name":"B_Bishop_Material",
			"primitives":[
				{
					"attributes":{
						"POSITION":0,
						"NORMAL":1,
						"TEXCOORD_0":2
					},
					"indices":3,
					"material":0
				}
			]
		}
	],
	"textures":[
		{
			"sampler":0,
			"source":0
		}
	],
	"images":[
		{
			"bufferView":4,
			"mimeType":"image/jpeg",
			"name":"01_-_Default_baseColor"
		}
	],
	"accessors":[
		{
			"bufferView":0,
			"componentType":5126,
			"count":4335,
			"max":[
				24.752899169921875,
				112.45745849609375,
				24.281932830810547
			],
			"min":[
				-24.59576416015625,
				0.11299896240234375,
				-24.317001342773438
			],
			"type":"VEC3"
		},
		{
			"bufferView":1,
			"componentType":5126,
			"count":4335,
			"type":"VEC3"
		},
		{
			"bufferView":2,
			"componentType":5126,
			"count":4335,
			"type":"VEC2"
		},
		{
			"bufferView":3,
			"componentType":5123,
			"count":4464,
			"type":"SCALAR"
		}
	],
	"bufferViews":[
		{
			"buffer":0,
			"byteLength":52020,
			"byteOffset":0,
			"target":34962
		},
		{
			"buffer":0,
			"byteLength":52020,
			"byteOffset":52020,
			"target":34962
		},
		{
			"buffer":0,
			"byteLength":34680,
			"byteOffset":104040,
			"target":34962
		},
		{
			"buffer":0,
			"byteLength":8928,
			"byteOffset":138720,
			"target":34963
		},
		{
			"buffer":0,
			"byteLength":48351,
			"byteOffset":147648
		}
	],
	"samplers":[
		{
			"magFilter":9729,
			"minFilter":9987
		}
	],
	"buffers":[
		{
			"byteLength":196000,
			"uri":"data:application/octet-stream;base64,"
		}
	]
}
