{
	"asset":{
		"generator":"Khronos glTF Blender I/O v3.6.27",
		"version":"2.0"
	},
	"scene":0,
	"scenes":[
		{
			"name":"Scene",
			"nodes":[
				0
			]
		}
	],
	"nodes":[
		{
			"mesh":0,
			"name":"B_King"
		}
	],
	"materials":[
		{
			"doubleSided":true,
			"name":"B_King_Material",
			"pbrMetallicRoughness":{
				"baseColorTexture":{
					"index":0
				},
				"metallicFactor":0.6988120079040527,
				"roughnessFactor":0.3557334542274475
			}
		}
	],
	"meshes":[
		{
			"name":"B_King_Material",
			"primitives":[
				{
					"attributes":{
						"POSITION":0,
						"NORMAL":1,
						"TEXCOORD_0":2
					},
					"indices":3,
					"material":0
				}
			]
		}
	],
	"textures":[
		{
			"sampler":0,
			"source":0
		}
	],
	"images":[
		{
			"bufferView":4,
			"mimeType":"image/jpeg",
			"name":"01_-_Default_baseColor"
		}
	],
	"accessors":[
		{
			"bufferView":0,
			"componentType":5126,
			"count":1217,
			"max":[
				24.541473388671875,
				149.2928466796875,
				25.132930755615234
			],
			"min":[
				-24.057479858398438,
				0.13788604736328125,
				-24.215728759765625
			],
			"type":"VEC3"
		},
		{
			"bufferView":1,
			"componentType":5126,
			"count":1217,
			"type":"VEC3"
		},
		{
			"bufferView":2,
			"componentType":5126,
			"count":1217,
			"type":"VEC2"
		},
		{
			"bufferView":3,
			"componentType":5123,
			"count":4110,
			"type":"SCALAR"
		}
	],
	"bufferViews":[
		{
			"buffer":0,
			"byteLength":14604,
			"byteOffset":0,
			"target":34962
		},
		{
			"buffer":0,
			"byteLength":14604,
			"byteOffset":14604,
			"target":34962
		},
		{
			"buffer":0,
			"byteLength":9736,
			"byteOffset":29208,
			"target":34962
		},
		{
			"buffer":0,
			"byteLength":8220,
			"byteOffset":38944,
			"target":34963
		},
		{
			"buffer":0,
			"byteLength":48351,
			"byteOffset":47164
		}
	],
	"samplers":[
		{
			"magFilter":9729,
			"minFilter":9987
		}
	],
	"buffers":[
		{
			"byteLength":95516,
			"uri":"data:application/octet-stream;base64,"
		}
	]
}
