{
	"asset":{
		"generator":"Khronos glTF Blender I/O v3.6.27",
		"version":"2.0"
	},
	"scene":0,
	"scenes":[
		{
			"name":"Scene",
			"nodes":[
				0
			]
		}
	],
	"nodes":[
		{
			"mesh":0,
			"name":"B_Knight"
		}
	],
	"materials":[
		{
			"doubleSided":true,
			"name":"B_Knight_Material",
			"pbrMetallicRoughness":{
				"baseColorTexture":{
					"index":0
				},
				"metallicFactor":0.6988120079040527,
				"roughnessFactor":0.3557334542274475
			}
		}
	],
	"meshes":[
		{
			"name":"B_Knight_Material",
			"primitives":[
				{
					"attributes":{
						"POSITION":0,
						"NORMAL":1,
						"TEXCOORD_0":2
					},
					"indices":3,
					"material":0
				}
			]
		}
	],
	"textures":[
		{
			"sampler":0,
			"source":0
		}
	],
	"images":[
		{
			"bufferView":4,
			"mimeType":"image/jpeg",
			"name":"01_-_Default_baseColor"
		}
	],
	"accessors":[
		{
			"bufferView":0,
			"componentType":5126,
			"count":1519,
			"max":[
				27.088760375976562,
				99.32038879394531,
				24.299358367919922
			],
			"min":[
				-27.77056884765625,
				0.39996337890625,
				-24.299575805664062
			],
			"type":"VEC3"
		},
		{
			"bufferView":1,
			"componentType":5126,
			"count":1519,
			"type":"VEC3"
		},
		{
			"bufferView":2,
			"componentType":5126,
			"count":1519,
			"type":"VEC2"
		},
		{
			"bufferView":3,
			"componentType":5123,
			"count":7500,
			"type":"SCALAR"
		}
	],
	"bufferViews":[
		{
			"buffer":0,
			"byteLength":18228,
			"byteOffset":0,
			"target":34962
		},
		{
			"buffer":0,
			"byteLength":18228,
			"byteOffset":18228,
			"target":34962
		},
		{
			"buffer":0,
			"byteLength":12152,
			"byteOffset":36456,
			"target":34962
		},
		{
			"buffer":0,
			"byteLength":15000,
			"byteOffset":48608,
			"target":34963
		},
		{
			"buffer":0,
			"byteLength":48351,
			"byteOffset":63608
		}
	],
	"samplers":[
		{
			"magFilter":9729,
			"minFilter":9987
		}
	],
	"buffers":[
		{
			"byteLength":111960,
			"uri":"data:application/octet-stream;base64,"
		}
	]
}
