{
	"asset":{
		"generator":"Khronos glTF Blender I/O v3.6.27",
		"version":"2.0"
	},
	"scene":0,
	"scenes":[
		{
			"name":"Scene",
			"nodes":[
				0
			]
		}
	],
	"nodes":[
		{
			"mesh":0,
			"name":"B_Pawn"
		}
	],
	"materials":[
		{
			"doubleSided":true,
			"name":"B_Pawn_Material",
			"pbrMetallicRoughness":{
				"baseColorTexture":{
					"index":0
				},
				"metallicFactor":0.6988120079040527,
				"roughnessFactor":0.3557334542274475
			}
		}
	],
	"meshes":[
		{
			"name":"B_Pawn_Material",
			"primitives":[
				{
					"attributes":{
						"POSITION":0,
						"NORMAL":1,
						"TEXCOORD_0":2
					},
					"indices":3,
					"material":0
				}
			]
		}
	],
	"textures":[
		{
			"sampler":0,
			"source":0
		}
	],
	"images":[
		{
			"bufferView":4,
			"mimeType":"image/jpeg",
			"name":"01_-_Default_baseColor"
		}
	],
	"accessors":[
		{
			"bufferView":0,
			"componentType":5126,
			"count":601,
			"max":[
				24.653656005859375,
				79.46273040771484,
				24.58907699584961
			],
			"min":[
				-24.69500732421875,
				0.05066739022731781,
				-24.0098876953125
			],
			"type":"VEC3"
		},
		{
			"bufferView":1,
			"componentType":5126,
			"count":601,
			"type":"VEC3"
		},
		{
			"bufferView":2,
			"componentType":5126,
			"count":601,
			"type":"VEC2"
		},
		{
			"bufferView":3,
			"componentType":5123,
			"count":3084,
			"type":"SCALAR"
		}
	],
	"bufferViews":[
		{
			"buffer":0,
			"byteLength":7212,
			"byteOffset":0,
			"target":34962
		},
		{
			"buffer":0,
			"byteLength":7212,
			"byteOffset":7212,
			"target":34962
		},
		{
			"buffer":0,
			"byteLength":4808,
			"byteOffset":14424,
			"target":34962
		},
		{
			"buffer":0,
			"byteLength":6168,
			"byteOffset":19232,
			"target":34963
		},
		{
			"buffer":0,
			"byteLength":48351,
			"byteOffset":25400
		}
	],
	"samplers":[
		{
			"magFilter":9729,
			"minFilter":9987
		}
	],
	"buffers":[
		{
			"byteLength":73752,
			"uri":"data:application/octet-stream;base64,"
		}
	]
}
