{
	"asset":{
		"generator":"Khronos glTF Blender I/O v3.6.27",
		"version":"2.0"
	},
	"scene":0,
	"scenes":[
		{
			"name":"Scene",
			"nodes":[
				0,
				1,
				2,
				3
			]
		}
	],
	"nodes":[
		{
			"mesh":0,
			"name":"Chess_Board_Border"
		},
		{
			"mesh":1,
			"name":"Chess_Board_Tile_White"
		},
		{
			"mesh":2,
			"name":"Chess_Board_Border_Tile"
		},
		{
			"mesh":3,
			"name":"Chess_Board_Tile_Black"
		}
	],
	"materials":[
		{
			"doubleSided":true,
			"name":"Chess_Board_Border_Material",
			"pbrMetallicRoughness":{
				"baseColorTexture":{
					"index":0
				},
				"roughnessFactor":0.8929713368415833
			}
		},
		{
			"doubleSided":true,
			"name":"Chess_Board_Tile_White_Material",
			"pbrMetallicRoughness":{
				"baseColorTexture":{
					"index":1
				},
				"metallicFactor":0,
				"roughnessFactor":0.3499999940395355
			}
		},
		{
			"doubleSided":true,
			"name":"Chess_Board_Border_Tile_Material",
			"pbrMetallicRoughness":{
				"baseColorFactor":[
					0.34902000427246094,
					0.21960799396038055,
					0.1254899948835373,
					1
				],
				"roughnessFactor":0.8929713368415833
			}
		},
		{
			"doubleSided":true,
			"name":"Chess_Board_Tile_Black_Material",
			"pbrMetallicRoughness":{
				"baseColorTexture":{
					"index":2
				},
				"metallicFactor":0,
				"roughnessFactor":0.8929713368415833
			}
		}
	],
	"meshes":[
		{
			"name":"Chess_Board_Border_Material",
			"primitives":[
				{
					"attributes":{
						"POSITION":0,
						"NORMAL":1,
						"TEXCOORD_0":2
					},
					"indices":3,
					"material":0
				}
			]
		},
		{
			"name":"Chess_Board_Tile_White_Material",
			"primitives":[
				{
					"attributes":{
						"POSITION":4,
						"NORMAL":5,
						"TEXCOORD_0":6
					},
					"indices":7,
					"material":1
				}
			]
		},
		{
			"name":"Chess_Board_Border_Tile_Material",
			"primitives":[
				{
					"attributes":{
						"POSITION":8,
						"NORMAL":9,
						"TEXCOORD_0":10
					},
					"indices":11,
					"material":2
				}
			]
		},
		{
			"name":"Chess_Board_Tile_Black_Material",
			"primitives":[
				{
					"attributes":{
						"POSITION":12,
						"NORMAL":13,
						"TEXCOORD_0":14
					},
					"indices":15,
					"material":3
				}
			]
		}
	],
	"textures":[
		{
			"sampler":0,
			"source":0
		},
		{
			"sampler":0,
			"source":1
		},
		{
			"sampler":0,
			"source":2
		}
	],
	"images":[
		{
			"bufferView":4,
			"mimeType":"image/jpeg",
			"name":"08_-_Default_baseColor"
		},
		{
			"bufferView":9,
			"mimeType":"image/jpeg",
			"name":"02_-_Default_baseColor"
		},
		{
			"bufferView":18,
			"mimeType":"image/jpeg",
			"name":"02_-_Default_0_baseColor"
		}
	],
	"accessors":[
		{
			"bufferView":0,
			"componentType":5126,
			"count":52,
			"max":[
				350.00006103515625,
				50.00002670288086,
				359.5478820800781
			],
			"min":[
				-350.00006103515625,
				-3.007007035193965e-05,
				-340.4521789550781
			],
			"type":"VEC3"
		},
		{
			"bufferView":1,
			"componentType":5126,
			"count":52,
			"type":"VEC3"
		},
		{
			"bufferView":2,
			"componentType":5126,
			"count":52,
			"type":"VEC2"
		},
		{
			"bufferView":3,
			"componentType":5123,
			"count":102,
			"type":"SCALAR"
		},
		{
			"bufferView":5,
			"componentType":5126,
			"count":143,
			"max":[
				282.9090270996094,
				57.50001907348633,
				297.4168701171875
			],
			"min":[
				-282.9090270996094,
				54.999969482421875,
				-278.3211669921875
			],
			"type":"VEC3"
		},
		{
			"bufferView":6,
			"componentType":5126,
			"count":143,
			"type":"VEC3"
		},
		{
			"bufferView":7,
			"componentType":5126,
			"count":143,
			"type":"VEC2"
		},
		{
			"bufferView":8,
			"componentType":5123,
			"count":288,
			"type":"SCALAR"
		},
		{
			"bufferView":10,
			"componentType":5126,
			"count":56,
			"max":[
				286.4519348144531,
				55.00001907348633,
				300.95977783203125
			],
			"min":[
				-286.4519348144531,
				49.99997329711914,
				-281.86407470703125
			],
			"type":"VEC3"
		},
		{
			"bufferView":11,
			"componentType":5126,
			"count":56,
			"type":"VEC3"
		},
		{
			"bufferView":12,
			"componentType":5126,
			"count":56,
			"type":"VEC2"
		},
		{
			"bufferView":13,
			"componentType":5123,
			"count":132,
			"type":"SCALAR"
		},
		{
			"bufferView":14,
			"componentType":5126,
			"count":143,
			"max":[
				282.9090270996094,
				57.50001907348633,
				297.4168701171875
			],
			"min":[
				-282.9090270996094,
				54.999969482421875,
				-278.3211669921875
			],
			"type":"VEC3"
		},
		{
			"bufferView":15,
			"componentType":5126,
			"count":143,
			"type":"VEC3"
		},
		{
			"bufferView":16,
			"componentType":5126,
			"count":143,
			"type":"VEC2"
		},
		{
			"bufferView":17,
			"componentType":5123,
			"count":288,
			"type":"SCALAR"
		}
	],
	"bufferViews":[
		{
			"buffer":0,
			"byteLength":624,
			"byteOffset":0,
			"target":34962
		},
		{
			"buffer":0,
			"byteLength":624,
			"byteOffset":624,
			"target":34962
		},
		{
			"buffer":0,
			"byteLength":416,
			"byteOffset":1248,
			"target":34962
		},
		{
			"buffer":0,
			"byteLength":204,
			"byteOffset":1664,
			"target":34963
		},
		{
			"buffer":0,
			"byteLength":15210,
			"byteOffset":1868
		},
		{
			"buffer":0,
			"byteLength":1716,
			"byteOffset":17080,
			"target":34962
		},
		{
			"buffer":0,
			"byteLength":1716,
			"byteOffset":18796,
			"target":34962
		},
		{
			"buffer":0,
			"byteLength":1144,
			"byteOffset":20512,
			"target":34962
		},
		{
			"buffer":0,
			"byteLength":576,
			"byteOffset":21656,
			"target":34963
		},
		{
			"buffer":0,
			"byteLength":7886,
			"byteOffset":22232
		},
		{
			"buffer":0,
			"byteLength":672,
			"byteOffset":30120,
			"target":34962
		},
		{
			"buffer":0,
			"byteLength":672,
			"byteOffset":30792,
			"target":34962
		},
		{
			"buffer":0,
			"byteLength":448,
			"byteOffset":31464,
			"target":34962
		},
		{
			"buffer":0,
			"byteLength":264,
			"byteOffset":31912,
			"target":34963
		},
		{
			"buffer":0,
			"byteLength":1716,
			"byteOffset":32176,
			"target":34962
		},
		{
			"buffer":0,
			"byteLength":1716,
			"byteOffset":33892,
			"target":34962
		},
		{
			"buffer":0,
			"byteLength":1144,
			"byteOffset":35608,
			"target":34962
		},
		{
			"buffer":0,
			"byteLength":576,
			"byteOffset":36752,
			"target":34963
		},
		{
			"buffer":0,
			"byteLength":245983,
			"byteOffset":37328
		}
	],
	"samplers":[
		{
			"magFilter":9729,
			"minFilter":9987
		}
	],
	"buffers":[
		{
			"byteLength":283312,
			"uri":"data:application/octet-stream;base64,"
		}
	]
}
