{
	"asset":{
		"generator":"Khronos glTF Blender I/O v3.6.27",
		"version":"2.0"
	},
	"scene":0,
	"scenes":[
		{
			"name":"Scene",
			"nodes":[
				0
			]
		}
	],
	"nodes":[
		{
			"mesh":0,
			"name":"W_Bishop"
		}
	],
	"materials":[
		{
			"doubleSided":true,
			"name":"W_Bishop_Material",
			"pbrMetallicRoughness":{
				"baseColorTexture":{
					"index":0
				},
				"metallicFactor":0.33000001311302185,
				"roughnessFactor":0.3400000035762787
			}
		}
	],
	"meshes":[
		{
			"name":"W_Bishop_Material",
			"primitives":[
				{
					"attributes":{
						"POSITION":0,
						"NORMAL":1,
						"TEXCOORD_0":2
					},
					"indices":3,
					"material":0
				}
			]
		}
	],
	"textures":[
		{
			"sampler":0,
			"source":0
		}
	],
	"images":[
		{
			"bufferView":4,
			"mimeType":"image/jpeg",
			"name":"02_-_Default_baseColor"
		}
	],
	"accessors":[
		{
			"bufferView":0,
			"componentType":5126,
			"count":1689,
			"max":[
				24.517776489257812,
				112.34025573730469,
				24.48952865600586
			],
			"min":[
				-24.830886840820312,
				-0.004212107043713331,
				-24.109420776367188
			],
			"type":"VEC3"
		},
		{
			"bufferView":1,
			"componentType":5126,
			"count":1689,
			"type":"VEC3"
		},
		{
			"bufferView":2,
			"componentType":5126,
			"count":1689,
			"type":"VEC2"
		},
		{
			"bufferView":3,
			"componentType":5123,
			"count":4464,
			"type":"SCALAR"
		}
	],
	"bufferViews":[
		{
			"buffer":0,
			"byteLength":20268,
			"byteOffset":0,
			"target":34962
		},
		{
			"buffer":0,
			"byteLength":20268,
			"byteOffset":20268,
			"target":34962
		},
		{
			"buffer":0,
			"byteLength":13512,
			"byteOffset":40536,
			"target":34962
		},
		{
			"buffer":0,
			"byteLength":8928,
			"byteOffset":54048,
			"target":34963
		},
		{
			"buffer":0,
			"byteLength":7886,
			"byteOffset":62976
		}
	],
	"samplers":[
		{
			"magFilter":9729,
			"minFilter":9987
		}
	],
	"buffers":[
		{
			"byteLength":70864,
			"uri":"data:application/octet-stream;base64,"
		}
	]
}
