{
	"asset":{
		"generator":"Khronos glTF Blender I/O v3.6.27",
		"version":"2.0"
	},
	"scene":0,
	"scenes":[
		{
			"name":"Scene",
			"nodes":[
				0
			]
		}
	],
	"nodes":[
		{
			"mesh":0,
			"name":"W_Knight"
		}
	],
	"materials":[
		{
			"doubleSided":true,
			"name":"W_Knight_Material",
			"pbrMetallicRoughness":{
				"baseColorTexture":{
					"index":0
				},
				"metallicFactor":0.33000001311302185,
				"roughnessFactor":0.3400000035762787
			}
		}
	],
	"meshes":[
		{
			"name":"W_Knight_Material",
			"primitives":[
				{
					"attributes":{
						"POSITION":0,
						"NORMAL":1,
						"TEXCOORD_0":2
					},
					"indices":3,
					"material":0
				}
			]
		}
	],
	"textures":[
		{
			"sampler":0,
			"source":0
		}
	],
	"images":[
		{
			"bufferView":4,
			"mimeType":"image/jpeg",
			"name":"02_-_Default_baseColor"
		}
	],
	"accessors":[
		{
			"bufferView":0,
			"componentType":5126,
			"count":1520,
			"max":[
				27.088760375976562,
				99.06040954589844,
				24.299724578857422
			],
			"min":[
				-27.77056884765625,
				0.13997693359851837,
				-24.299209594726562
			],
			"type":"VEC3"
		},
		{
			"bufferView":1,
			"componentType":5126,
			"count":1520,
			"type":"VEC3"
		},
		{
			"bufferView":2,
			"componentType":5126,
			"count":1520,
			"type":"VEC2"
		},
		{
			"bufferView":3,
			"componentType":5123,
			"count":7500,
			"type":"SCALAR"
		}
	],
	"bufferViews":[
		{
			"buffer":0,
			"byteLength":18240,
			"byteOffset":0,
			"target":34962
		},
		{
			"buffer":0,
			"byteLength":18240,
			"byteOffset":18240,
			"target":34962
		},
		{
			"buffer":0,
			"byteLength":12160,
			"byteOffset":36480,
			"target":34962
		},
		{
			"buffer":0,
			"byteLength":15000,
			"byteOffset":48640,
			"target":34963
		},
		{
			"buffer":0,
			"byteLength":7886,
			"byteOffset":63640
		}
	],
	"samplers":[
		{
			"magFilter":9729,
			"minFilter":9987
		}
	],
	"buffers":[
		{
			"byteLength":71528,
			"uri":"data:application/octet-stream;base64,"
		}
	]
}
