{
	"asset":{
		"generator":"Khronos glTF Blender I/O v3.6.27",
		"version":"2.0"
	},
	"scene":0,
	"scenes":[
		{
			"name":"Scene",
			"nodes":[
				0
			]
		}
	],
	"nodes":[
		{
			"mesh":0,
			"name":"W_Queen"
		}
	],
	"materials":[
		{
			"doubleSided":true,
			"name":"W_Queen_Material",
			"pbrMetallicRoughness":{
				"baseColorTexture":{
					"index":0
				},
				"metallicFactor":0.33000001311302185,
				"roughnessFactor":0.3400000035762787
			}
		}
	],
	"meshes":[
		{
			"name":"W_Queen_Material",
			"primitives":[
				{
					"attributes":{
						"POSITION":0,
						"NORMAL":1,
						"TEXCOORD_0":2
					},
					"indices":3,
					"material":0
				}
			]
		}
	],
	"textures":[
		{
			"sampler":0,
			"source":0
		}
	],
	"images":[
		{
			"bufferView":4,
			"mimeType":"image/jpeg",
			"name":"02_-_Default_baseColor"
		}
	],
	"accessors":[
		{
			"bufferView":0,
			"componentType":5126,
			"count":1999,
			"max":[
				24.46855926513672,
				128.55369567871094,
				24.442338943481445
			],
			"min":[
				-24.880104064941406,
				0.06922081112861633,
				-24.15659523010254
			],
			"type":"VEC3"
		},
		{
			"bufferView":1,
			"componentType":5126,
			"count":1999,
			"type":"VEC3"
		},
		{
			"bufferView":2,
			"componentType":5126,
			"count":1999,
			"type":"VEC2"
		},
		{
			"bufferView":3,
			"componentType":5123,
			"count":5448,
			"type":"SCALAR"
		}
	],
	"bufferViews":[
		{
			"buffer":0,
			"byteLength":23988,
			"byteOffset":0,
			"target":34962
		},
		{
			"buffer":0,
			"byteLength":23988,
			"byteOffset":23988,
			"target":34962
		},
		{
			"buffer":0,
			"byteLength":15992,
			"byteOffset":47976,
			"target":34962
		},
		{
			"buffer":0,
			"byteLength":10896,
			"byteOffset":63968,
			"target":34963
		},
		{
			"buffer":0,
			"byteLength":7886,
			"byteOffset":74864
		}
	],
	"samplers":[
		{
			"magFilter":9729,
			"minFilter":9987
		}
	],
	"buffers":[
		{
			"byteLength":82752,
			"uri":"data:application/octet-stream;base64,"
		}
	]
}
