{
	"asset":{
		"generator":"Khronos glTF Blender I/O v3.6.27",
		"version":"2.0"
	},
	"scene":0,
	"scenes":[
		{
			"name":"Scene",
			"nodes":[
				0
			]
		}
	],
	"nodes":[
		{
			"mesh":0,
			"name":"W_Rook"
		}
	],
	"materials":[
		{
			"doubleSided":true,
			"name":"W_Rook_Material",
			"pbrMetallicRoughness":{
				"baseColorTexture":{
					"index":0
				},
				"metallicFactor":0.33000001311302185,
				"roughnessFactor":0.3400000035762787
			}
		}
	],
	"meshes":[
		{
			"name":"W_Rook_Material",
			"primitives":[
				{
					"attributes":{
						"POSITION":0,
						"NORMAL":1,
						"TEXCOORD_0":2
					},
					"indices":3,
					"material":0
				}
			]
		}
	],
	"textures":[
		{
			"sampler":0,
			"source":0
		}
	],
	"images":[
		{
			"bufferView":4,
			"mimeType":"image/jpeg",
			"name":"02_-_Default_baseColor"
		}
	],
	"accessors":[
		{
			"bufferView":0,
			"componentType":5126,
			"count":661,
			"max":[
				24.594772338867188,
				91.3835678100586,
				24.350170135498047
			],
			"min":[
				-24.753890991210938,
				0.0033613399136811495,
				-24.248764038085938
			],
			"type":"VEC3"
		},
		{
			"bufferView":1,
			"componentType":5126,
			"count":661,
			"type":"VEC3"
		},
		{
			"bufferView":2,
			"componentType":5126,
			"count":661,
			"type":"VEC2"
		},
		{
			"bufferView":3,
			"componentType":5123,
			"count":2694,
			"type":"SCALAR"
		}
	],
	"bufferViews":[
		{
			"buffer":0,
			"byteLength":7932,
			"byteOffset":0,
			"target":34962
		},
		{
			"buffer":0,
			"byteLength":7932,
			"byteOffset":7932,
			"target":34962
		},
		{
			"buffer":0,
			"byteLength":5288,
			"byteOffset":15864,
			"target":34962
		},
		{
			"buffer":0,
			"byteLength":5388,
			"byteOffset":21152,
			"target":34963
		},
		{
			"buffer":0,
			"byteLength":7886,
			"byteOffset":26540
		}
	],
	"samplers":[
		{
			"magFilter":9729,
			"minFilter":9987
		}
	],
	"buffers":[
		{
			"byteLength":34428,
			"uri":"data:application/octet-stream;base64,"
		}
	]
}
